<svg width="75" height="75" fill="none" xmlns="http://www.w3.org/2000/svg"><g clip-path="url(#clip0)"><path d="M75 20.68v33.64c0 5.854-4.762 10.616-10.614 10.616H10.614C4.762 64.936 0 60.174 0 54.321V20.679c0-5.853 4.762-10.615 10.614-10.615h53.772C70.238 10.063 75 14.825 75 20.678z" fill="#6AA9FF"/><path d="M75 20.68v33.64c0 5.854-4.762 10.616-10.614 10.616H37.5V10.063h26.886C70.238 10.063 75 14.826 75 20.68z" fill="#4987EA"/><path d="M21.41 51.156L9.926 39.67a2.197 2.197 0 010-3.107l12.72-12.72a2.197 2.197 0 113.107 3.108L14.587 38.118l9.93 9.93a2.197 2.197 0 11-3.107 3.108z" fill="#F0F7FF"/><path d="M49.247 51.156a2.197 2.197 0 010-3.108l11.166-11.166-9.93-9.93a2.197 2.197 0 013.107-3.108l11.484 11.484c.858.859.858 2.25 0 3.108l-12.72 12.72a2.197 2.197 0 01-3.107 0z" fill="#DFE7F4"/><path d="M45.343 21.782L37.5 43.99l-3.777 10.692a2.197 2.197 0 01-4.144-1.463L37.5 30.79l3.7-10.472a2.198 2.198 0 014.144 1.463z" fill="#F0F7FF"/><path d="M45.343 21.782L37.5 43.99V30.791l3.699-10.472a2.198 2.198 0 014.144 1.463z" fill="#DFE7F4"/></g><defs><clipPath id="clip0"><path fill="#fff" d="M0 0h75v75H0z"/></clipPath></defs></svg>