<svg width="70" height="70" fill="none" xmlns="http://www.w3.org/2000/svg"><path d="M35 0C21.41 0 10.353 11.23 10.353 25.033v19.935C10.353 58.77 21.409 70 35 70c13.59 0 24.647-11.195 24.647-24.956v-20.01C59.647 11.23 48.59 0 35 0zm20.01 45.044c0 11.205-8.976 20.32-20.01 20.32s-20.011-9.15-20.011-20.397V25.033c0-11.247 8.977-20.397 20.01-20.397 11.036 0 20.012 9.15 20.012 20.397v20.011z" fill="#fff"/><path d="M35 19.161c-1.28 0-2.318 1.221-2.318 2.727v9.546c0 1.506 1.038 2.727 2.318 2.727s2.318-1.22 2.318-2.727v-9.546c0-1.506-1.038-2.727-2.318-2.727z" fill="#fff"/></svg>